KRSPY-NL-MaxG.ufo
<glyph name="zero" format="2">
  <advance width="145.6896896896897"/>
  <unicode hex="0030"/>
  <outline>
    <contour>
      <point x="19.46046046046046" y="0.0" type="line" identifier="4KX3b3mGg4"/>
      <point x="126.22922922922923" y="0.0" type="line" identifier="V2j8wYP0nr"/>
      <point x="126.22922922922923" y="1600.0" type="line" identifier="NaxGoenf3y"/>
      <point x="19.46046046046046" y="1600.0" type="line" identifier="rx6fJSLiri"/>
    </contour>
    <contour>
      <point x="25.784784784784783" y="6.1441441441441444" type="line"/>
      <point x="25.784784784784783" y="1593.855855855856" type="line"/>
      <point x="119.90490490490491" y="1593.855855855856" type="line"/>
      <point x="119.90490490490491" y="6.1441441441441444" type="line"/>
    </contour>
  </outline>
</glyph>
<glyph name="three" format="2">
  <advance width="137.67967967967968"/>
  <unicode hex="0033"/>
  <outline>
    <contour>
      <point x="17.455455455455457" y="0.0" type="line" identifier="O9abUc1nmN"/>
      <point x="121.22422422422423" y="0.0" type="line" identifier="kMJYMTfXCq"/>
      <point x="121.22422422422423" y="810.5315315315315" type="line" identifier="su2XmdS8e8"/>
      <point x="91.56856856856857" y="810.5315315315315" type="line" identifier="JQaOzDQqlF"/>
      <point x="91.56856856856857" y="813.5465465465466" type="line"/>
      <point x="112.96396396396396" y="899.5315315315315" type="line" identifier="S91TzLL02W"/>
      <point x="112.96396396396396" y="1600.0" type="line" identifier="xg8x2Ki40p"/>
      <point x="19.46046046046046" y="1600.0" type="line" identifier="pE1XSRiy68"/>
      <point x="19.46046046046046" y="1426.7657657657658" type="line" identifier="5lNstGRcSF"/>
      <point x="25.784784784784783" y="1426.7657657657658" type="line" identifier="AcE5xKDZfE"/>
      <point x="25.784784784784783" y="1593.7657657657658" type="line" identifier="7ogBYufWpl"/>
      <point x="106.63963963963964" y="1593.7657657657658" type="line" identifier="RHLvSX2Jv6"/>
      <point x="106.63963963963964" y="899.5315315315315" type="line" identifier="YUjTrmoWd9"/>
      <point x="85.28428428428428" y="813.5515515515516" type="line"/>
      <point x="85.28428428428428" y="810.5315315315315" type="line" identifier="iic1IBkDqp"/>
      <point x="28.97097097097097" y="810.5315315315315" type="line" identifier="lRLJEhXMlO"/>
      <point x="28.97097097097097" y="806.009009009009" type="line" identifier="8aKgEELrVU"/>
      <point x="114.8998998998999" y="806.009009009009" type="line" identifier="Dm8zjmbhNr"/>
      <point x="114.8998998998999" y="6.1441441441441444" type="line" identifier="xv9CFHiFgB"/>
      <point x="22.793793793793792" y="6.1441441441441444" type="line" identifier="YajKQV3MHP"/>
      <point x="22.793793793793792" y="117.42342342342343" type="line" identifier="36SchVkwze"/>
      <point x="17.455455455455457" y="117.42342342342343" type="line" identifier="tVui9PiOjA"/>
    </contour>
  </outline>
</glyph>
<glyph name="four" format="2">
  <advance width="124.66466466466467"/>
  <unicode hex="0034"/>
  <outline>
    <contour>
      <point x="86.86486486486487" y="0.0" type="line"/>
      <point x="93.1891891891892" y="0.0" type="line"/>
      <point x="93.1891891891892" y="809.6576576576576" type="line"/>
      <point x="122.04404404404404" y="809.6576576576576" type="line"/>
      <point x="122.04404404404404" y="815.8018018018018" type="line"/>
      <point x="93.1891891891892" y="815.8018018018018" type="line"/>
      <point x="93.1891891891892" y="1600.0" type="line"/>
      <point x="86.86486486486487" y="1600.0" type="line"/>
      <point x="86.86486486486487" y="815.8018018018018" type="line"/>
      <point x="10.764764764764765" y="815.8018018018018" type="line"/>
      <point x="10.764764764764765" y="896.8018018018018" type="line"/>
      <point x="47.81481481481482" y="1680.0" type="line"/>
      <point x="42.48548548548548" y="1680.0" type="line"/>
      <point x="4.44044044044044" y="895.8018018018018" type="line"/>
      <point x="4.44044044044044" y="809.6576576576576" type="line"/>
      <point x="86.86486486486487" y="809.6576576576576" type="line"/>
    </contour>
  </outline>
</glyph>
<glyph name="five" format="2">
  <advance width="139.67967967967968"/>
  <unicode hex="0035"/>
  <outline>
    <contour>
      <point x="22.45145145145145" y="0.0" type="line" identifier="09VlJ0BjUX"/>
      <point x="119.21921921921921" y="0.0" type="line" identifier="EagWihqFM8"/>
      <point x="119.21921921921921" y="790.7867867867868" type="line" identifier="KfNuQA7eZe"/>
      <point x="26.784784784784783" y="815.0570570570571" type="line" identifier="At364YZFEy"/>
      <point x="26.784784784784783" y="1593.855855855856" type="line" identifier="BcuLfvaQKC"/>
      <point x="119.21921921921921" y="1593.855855855856" type="line" identifier="3ZUkG35meB"/>
      <point x="119.21921921921921" y="1600.0" type="line" identifier="SaF9ojRFrW"/>
      <point x="20.46046046046046" y="1600.0" type="line" identifier="F4sQEYelA8"/>
      <point x="20.46046046046046" y="809.5585585585585" type="line" identifier="3sQ8t8BZ6b"/>
      <point x="112.89489489489489" y="785.2832832832833" type="line" identifier="yiV6OCBLHg"/>
      <point x="112.89489489489489" y="6.1441441441441444" type="line" identifier="9kdl9SYsn8"/>
      <point x="27.78978978978979" y="6.1441441441441444" type="line" identifier="yZDWuX8LLe"/>
      <point x="27.78978978978979" y="245.7927927927928" type="line" identifier="jYb9001DTm"/>
      <point x="22.45145145145145" y="245.7927927927928" type="line" identifier="ho4DrS0rdW"/>
    </contour>
  </outline>
</glyph>
<glyph name="six" format="2">
  <advance width="131.67467467467466"/>
  <unicode hex="0036"/>
  <outline>
    <contour>
      <point x="13.441441441441441" y="0.0" type="line" identifier="uiw6aBUf4P"/>
      <point x="117.21921921921921" y="0.0" type="line" identifier="jtYkxiUX6G"/>
      <point x="117.21921921921921" y="802.1711711711712" type="line" identifier="2G5L37c87I"/>
      <point x="18.77977977977978" y="802.1711711711712" type="line"/>
      <point x="18.77977977977978" y="1435.3963963963963" type="line"/>
      <point x="55.55455455455455" y="1593.855855855856" type="line"/>
      <point x="110.88988988988989" y="1593.855855855856" type="line"/>
      <point x="110.88988988988989" y="1356.7567567567567" type="line"/>
      <point x="116.21921921921921" y="1356.7567567567567" type="line" identifier="Wuidbv6mUe"/>
      <point x="116.21921921921921" y="1600.0" type="line" identifier="oGvEEuxnYv"/>
      <point x="50.5005005005005" y="1600.0" type="line" identifier="xR3pEHbMJx"/>
      <point x="13.441441441441441" y="1436.3963963963963" type="line" identifier="KnMArb0tv8"/>
    </contour>
    <contour>
      <point x="110.89489489489489" y="796.7477477477478" type="line"/>
      <point x="110.89489489489489" y="6.1441441441441444" type="line"/>
      <point x="18.77977977977978" y="6.1441441441441444" type="line"/>
      <point x="18.77977977977978" y="796.7477477477478" type="line"/>
    </contour>
  </outline>
</glyph>
<glyph name="seven" format="2">
  <advance width="132.67467467467466"/>
  <unicode hex="0037"/>
  <outline>
    <contour>
      <point x="65.65865865865865" y="0.0" type="line"/>
      <point x="71.98298298298297" y="0.0" type="line" identifier="PiPrv7Kcoy"/>
      <point x="115.22822822822822" y="1487.7567567567567" type="line" identifier="PkvwNC9Tx1"/>
      <point x="115.22822822822822" y="1600.0" type="line" identifier="tgqM27bPOm"/>
      <point x="12.45045045045045" y="1600.0" type="line" identifier="36ml4xRICt"/>
      <point x="12.45045045045045" y="1355.855855855856" type="line" identifier="aaDZsh5Mah"/>
      <point x="18.774774774774777" y="1355.855855855856" type="line"/>
      <point x="18.774774774774777" y="1593.855855855856" type="line"/>
      <point x="109.88988988988989" y="1593.855855855856" type="line"/>
      <point x="109.88988988988989" y="1492.6846846846847" type="line"/>
    </contour>
  </outline>
</glyph>
<glyph name="eight" format="2">
  <advance width="169.7197197197197"/>
  <unicode hex="0038"/>
  <outline>
    <contour>
      <point x="90.86486486486487" y="797.3783783783783" type="line"/>
      <point x="136.92492492492494" y="751.1981981981982" type="line"/>
      <point x="136.92492492492494" y="6.1441441441441444" type="line"/>
      <point x="32.7947947947948" y="6.1441441441441444" type="line"/>
      <point x="32.7947947947948" y="751.1981981981982" type="line"/>
      <point x="78.85485485485485" y="797.3783783783783" type="line"/>
    </contour>
    <contour>
      <point x="96.7027027027027" y="799.0" type="line"/>
      <point x="96.7027027027027" y="801.0" type="line"/>
      <point x="139.25825825825828" y="844.001001001001" type="line"/>
      <point x="139.25825825825828" y="1600.0" type="line"/>
      <point x="30.46146146146146" y="1600.0" type="line"/>
      <point x="30.46146146146146" y="844.001001001001" type="line"/>
      <point x="73.03503503503504" y="801.0" type="line"/>
      <point x="73.03503503503504" y="799.0" type="line"/>
      <point x="26.47047047047047" y="752.998998998999" type="line"/>
      <point x="26.47047047047047" y="0.0" type="line"/>
      <point x="143.24924924924926" y="0.0" type="line"/>
      <point x="143.24924924924926" y="752.998998998999" type="line"/>
    </contour>
    <contour>
      <point x="78.85485485485485" y="802.6216216216217" type="line"/>
      <point x="35.7997997997998" y="845.8018018018018" type="line"/>
      <point x="35.7997997997998" y="1593.855855855856" type="line"/>
      <point x="133.91991991991992" y="1593.855855855856" type="line"/>
      <point x="133.91991991991992" y="845.8018018018018" type="line"/>
      <point x="90.86486486486487" y="802.6216216216217" type="line"/>
    </contour>
  </outline>
</glyph>
<glyph name="nine" format="2">
  <advance width="131.67467467467466"/>
  <unicode hex="0039"/>
  <outline>
    <contour>
      <point x="118.21921921921921" y="1600.0" type="line" identifier="uiw6aBUf4P"/>
      <point x="14.441441441441441" y="1600.0" type="line" identifier="jtYkxiUX6G"/>
      <point x="14.441441441441441" y="797.6486486486486" type="line" identifier="2G5L37c87I"/>
      <point x="111.89489489489489" y="797.6486486486486" type="line"/>
      <point x="111.89489489489489" y="6.1441441441441444" type="line"/>
      <point x="20.77977977977978" y="6.1441441441441444" type="line"/>
      <point x="20.77977977977978" y="243.15315315315314" type="line"/>
      <point x="14.455455455455455" y="243.15315315315314" type="line" identifier="Wuidbv6mUe"/>
      <point x="14.455455455455455" y="0.0" type="line" identifier="oGvEEuxnYv"/>
      <point x="118.21921921921921" y="0.0" type="line" identifier="xR3pEHbMJx"/>
    </contour>
    <contour>
      <point x="19.77977977977978" y="803.2522522522522" type="line"/>
      <point x="19.77977977977978" y="1593.855855855856" type="line"/>
      <point x="111.89489489489489" y="1593.855855855856" type="line"/>
      <point x="111.89489489489489" y="803.2522522522522" type="line"/>
    </contour>
  </outline>
</glyph>
<glyph name="C" format="2">
  <advance width="124.66466466466467"/>
  <unicode hex="0043"/>
  <outline>
    <contour>
      <point x="11.45045045045045" y="0.0" type="line" identifier="7lPhzTnk2Z"/>
      <point x="116.21421421421421" y="0.0" type="line" identifier="qJVLZGnkwh"/>
      <point x="116.21421421421421" y="257.85085085085086" type="line" identifier="nDnDHzAMXL"/>
      <point x="109.88988988988989" y="257.85085085085086" type="line" identifier="QX1V08aTu0"/>
      <point x="109.88988988988989" y="6.1441441441441444" type="line" identifier="Y750RHTvDj"/>
      <point x="17.774774774774777" y="6.1441441441441444" type="line" identifier="L2LsGnXiZ2"/>
      <point x="17.774774774774777" y="1292.7857857857857" type="line" identifier="sUWsr03vF4"/>
      <point x="61.532532532532535" y="1593.855855855856" type="line" identifier="dbOUe6OhxL"/>
      <point x="108.88988988988989" y="1593.855855855856" type="line" identifier="5BjRbcud80"/>
      <point x="108.88988988988989" y="1149.126126126126" type="line" identifier="fNVDqwQo2o"/>
      <point x="115.21421421421421" y="1149.126126126126" type="line" identifier="wLqQQx7QVN"/>
      <point x="115.21421421421421" y="1600.0" type="line" identifier="9eJelv8BOw"/>
      <point x="55.5055055055055" y="1600.0" type="line" identifier="lfZev3ICaC"/>
      <point x="11.45045045045045" y="1294.027027027027" type="line" identifier="V1EWIdPahq"/>
    </contour>
  </outline>
</glyph>
<glyph name="D" format="2">
  <advance width="148.6946946946947"/>
  <unicode hex="0044"/>
  <outline>
    <contour>
      <point x="21.45145145145145" y="0.0" type="line" identifier="gh4oopoKIn"/>
      <point x="128.24324324324326" y="0.0" type="line" identifier="wIy2omw5Da"/>
      <point x="128.24324324324326" y="1343.2562562562562" type="line" identifier="ydeACnPZN4"/>
      <point x="74.55655655655656" y="1600.0" type="line" identifier="IF8msvcgce"/>
      <point x="21.45145145145145" y="1600.0" type="line" identifier="hTYdJwlqIh"/>
    </contour>
    <contour>
      <point x="26.78978978978979" y="1593.855855855856" type="line" identifier="YShvMHvurg"/>
      <point x="69.86686686686687" y="1593.855855855856" type="line" identifier="DiLdvAK6bW"/>
      <point x="122.90490490490491" y="1342.2562562562562" type="line" identifier="5OFemp6E2Y"/>
      <point x="122.90490490490491" y="6.1441441441441444" type="line" identifier="4w8cXO1HlF"/>
      <point x="26.78978978978979" y="6.1441441441441444" type="line" identifier="OGdfzPVlic"/>
    </contour>
  </outline>
</glyph>
<glyph name="J" format="2">
  <advance width="125.66466466466467"/>
  <unicode hex="004A"/>
  <outline>
    <contour>
      <point x="45.490490490490494" y="0.0" type="line" identifier="jiO9eX9U07"/>
      <point x="109.2092092092092" y="0.0" type="line" identifier="wgpFs1yguc"/>
      <point x="109.2092092092092" y="1600.0" type="line" identifier="d5Di3vNzni"/>
      <point x="7.445445445445445" y="1600.0" type="line" identifier="TbrXnCyMEi"/>
      <point x="7.445445445445445" y="1593.855855855856" type="line" identifier="AdYfGKx8QJ"/>
      <point x="102.88488488488488" y="1593.855855855856" type="line" identifier="46RrD1WET2"/>
      <point x="102.88488488488488" y="6.1441441441441444" type="line" identifier="zFXsE8BUYG"/>
      <point x="50.62162162162162" y="6.1441441441441444" type="line" identifier="NQmE31PUns"/>
      <point x="10.76976976976977" y="350.14414414414415" type="line" identifier="qiXxY6YhCq"/>
      <point x="5.44044044044044" y="350.14414414414415" type="line" identifier="7exNZv1XSc"/>
    </contour>
  </outline>
</glyph>
<glyph name="L" format="2">
  <advance width="138.67967967967968"/>
  <unicode hex="004C"/>
  <outline>
    <contour>
      <point x="31.475475475475477" y="0.0" type="line" identifier="XkJNfQlnnt"/>
      <point x="126.22922922922923" y="0.0" type="line" identifier="82EXZEgt46"/>
      <point x="126.22922922922923" y="270.14414414414415" type="line" identifier="VYRt9kHZtP"/>
      <point x="119.90490490490491" y="270.14414414414415" type="line" identifier="t7Q9RRLHt8"/>
      <point x="119.90490490490491" y="6.1441441441441444" type="line" identifier="cqpSxwFiM3"/>
      <point x="37.7997997997998" y="6.1441441441441444" type="line" identifier="MbxRZRd8vz"/>
      <point x="37.7997997997998" y="1600.0" type="line" identifier="lYiaKSKITt"/>
      <point x="31.475475475475477" y="1600.0" type="line" identifier="XFf4mMUzYo"/>
    </contour>
  </outline>
</glyph>
<glyph name="M" format="2">
  <advance width="239.80580580580582"/>
  <unicode hex="004D"/>
  <outline>
    <contour>
      <point x="104.97497497497497" y="80.0" type="line" identifier="0Dn4Xpf57M"/>
      <point x="62.93793793793794" y="1593.855855855856" type="line"/>
      <point x="37.7997997997998" y="1593.855855855856" type="line"/>
      <point x="37.7997997997998" y="0.0" type="line"/>
      <point x="31.475475475475477" y="0.0" type="line"/>
      <point x="31.475475475475477" y="1600.0" type="line"/>
      <point x="66.83783783783784" y="1600.0" type="line"/>
      <point x="109.86986986986987" y="85.78378378378379" type="line"/>
      <point x="129.93593593593593" y="85.78378378378379" type="line" identifier="9aKZPM0HPh"/>
      <point x="172.96796796796798" y="1600.0" type="line"/>
      <point x="208.33033033033033" y="1600.0" type="line"/>
      <point x="208.33033033033033" y="0.0" type="line"/>
      <point x="202.006006006006" y="0.0" type="line"/>
      <point x="202.006006006006" y="1593.855855855856" type="line"/>
      <point x="176.8678678678679" y="1593.855855855856" type="line"/>
      <point x="134.83083083083085" y="80.0" type="line" identifier="spdoeeCFft"/>
    </contour>
  </outline>
</glyph>
<glyph name="N" format="2">
  <advance width="199.7827827827828"/>
  <unicode hex="004E"/>
  <outline>
    <contour>
      <point x="27.495495495495497" y="0.0" type="line" identifier="CkwYPPvJLv"/>
      <point x="33.81981981981982" y="0.0" type="line" identifier="oHTJsN7drZ"/>
      <point x="33.81981981981982" y="1594.126126126126" type="line" identifier="wfBbYd10Pm"/>
      <point x="47.04304304304304" y="1594.126126126126" type="line" identifier="MEnBDHq6zU"/>
      <point x="145.03503503503504" y="0.0" type="line" identifier="3Nbopwznvn"/>
      <point x="172.31231231231232" y="0.0" type="line" identifier="uKfuudIUvA"/>
      <point x="172.31231231231232" y="1600.0" type="line" identifier="XRdLFXiM4t"/>
      <point x="165.987987987988" y="1600.0" type="line" identifier="MUSJPjCIXg"/>
      <point x="165.987987987988" y="5.873873873873874" type="line" identifier="VILP20cFmq"/>
      <point x="149.80380380380382" y="5.873873873873874" type="line" identifier="z5b04GDwRN"/>
      <point x="51.8028028028028" y="1600.0" type="line" identifier="LL64NQ6WBE"/>
      <point x="27.495495495495497" y="1600.0" type="line" identifier="dzUaaP1sjt"/>
    </contour>
  </outline>
</glyph>
<glyph name="Q" format="2">
  <advance width="159.7097097097097"/>
  <unicode hex="0051"/>
  <outline>
    <contour>
      <point x="133.23923923923923" y="1600.0" type="line" identifier="c9brEFyXXA"/>
      <point x="61.011011011011014" y="1600.0" type="line" identifier="a4Ql951bxG"/>
      <point x="26.47047047047047" y="1294.4594594594594" type="line" identifier="kbL68Qh2zr"/>
      <point x="26.47047047047047" y="0.0" type="line" identifier="U6WibAQAUl"/>
      <point x="133.23923923923923" y="0.0" type="line" identifier="dfgNHTgBfR"/>
    </contour>
    <contour>
      <point x="126.91491491491492" y="6.1441441441441444" type="line" identifier="jjd5iRDXWT"/>
      <point x="32.7947947947948" y="6.1441441441441444" type="line" identifier="YbQKHpAtYn"/>
      <point x="32.7947947947948" y="1295.4594594594594" type="line" identifier="vdfGLkskOQ"/>
      <point x="66.5915915915916" y="1593.855855855856" type="line" identifier="qXlVxK5ShE"/>
      <point x="126.91491491491492" y="1593.855855855856" type="line" identifier="g70r2r6DwY"/>
    </contour>
    <contour>
      <point x="78.35835835835836" y="-149.36136136136136" type="line"/>
      <point x="83.3963963963964" y="-149.36136136136136" type="line"/>
      <point x="83.3963963963964" y="1.98998998998999" type="line"/>
      <point x="78.35835835835836" y="1.98998998998999" type="line"/>
    </contour>
  </outline>
</glyph>
<glyph name="R" format="2">
  <advance width="163.7097097097097"/>
  <unicode hex="0052"/>
  <outline>
    <contour>
      <point x="37.7997997997998" y="802.1711711711712" type="line"/>
      <point x="37.7997997997998" y="1593.855855855856" type="line"/>
      <point x="126.91491491491492" y="1593.855855855856" type="line"/>
      <point x="126.91491491491492" y="844.1801801801802" type="line"/>
      <point x="95.87487487487488" y="802.1711711711712" type="line"/>
    </contour>
    <contour>
      <point x="136.25325325325326" y="0.0" type="line"/>
      <point x="136.25325325325326" y="760.0980980980981" type="line"/>
      <point x="102.6986986986987" y="799.0850850850851" type="line"/>
      <point x="102.6986986986987" y="801.0850850850851" type="line"/>
      <point x="133.23923923923923" y="843.1001001001001" type="line"/>
      <point x="133.23923923923923" y="1600.0" type="line"/>
      <point x="31.475475475475477" y="1600.0" type="line"/>
      <point x="31.475475475475477" y="0.0" type="line"/>
      <point x="37.7997997997998" y="0.0" type="line"/>
      <point x="37.7997997997998" y="796.027027027027" type="line"/>
      <point x="96.86086086086087" y="796.027027027027" type="line"/>
      <point x="130.9149149149149" y="758.027027027027" type="line"/>
      <point x="130.9149149149149" y="0.0" type="line"/>
    </contour>
  </outline>
</glyph>
<glyph name="U" format="2">
  <advance width="162.7097097097097"/>
  <unicode hex="0055"/>
  <outline>
    <contour>
      <point x="125.90990990990991" y="1600.0" type="line" smooth="yes"/>
      <point x="125.90990990990991" y="6.1441441441441444" type="line"/>
      <point x="77.48948948948949" y="6.1441441441441444" type="line" smooth="yes"/>
      <point x="33.7947947947948" y="308.3023023023023" type="line" smooth="yes"/>
      <point x="33.7947947947948" y="1600.0" type="line"/>
      <point x="27.47047047047047" y="1600.0" type="line" smooth="yes"/>
      <point x="27.47047047047047" y="308.3023023023023" type="line" smooth="yes"/>
      <point x="72.02602602602603" y="0.0" type="line" smooth="yes"/>
      <point x="131.24824824824825" y="0.0" type="line" smooth="yes"/>
      <point x="131.24824824824825" y="1600.0" type="line" smooth="yes"/>
    </contour>
  </outline>
</glyph>
<glyph name="W" format="2">
  <advance width="260.6046046046046"/>
  <unicode hex="0057"/>
  <outline>
    <contour>
      <point x="226.01901901901903" y="1600.0" type="line" smooth="yes" identifier="12Pyby1xY2"/>
      <point x="226.01901901901903" y="6.1441441441441444" type="line" identifier="iqeTRv7HXg"/>
      <point x="177.6896896896897" y="6.1441441441441444" type="line" identifier="GlWB6PG54Z"/>
      <point x="134.8988988988989" y="319.74174174174175" type="line"/>
      <point x="133.9039039039039" y="319.84184184184187" type="line"/>
      <point x="132.9089089089089" y="1600.0" type="line"/>
      <point x="127.8908908908909" y="1600.0" type="line" smooth="yes"/>
      <point x="127.8998998998999" y="316.8818818818819" type="line"/>
      <point x="127.8998998998999" y="6.1441441441441444" type="line" identifier="Ljn2lpvpG8"/>
      <point x="80.55655655655656" y="6.1441441441441444" type="line" smooth="yes" identifier="oee4nqI8Wl"/>
      <point x="36.770770770770774" y="309.2792792792793" type="line" smooth="yes" identifier="WWvGwSpq0g"/>
      <point x="36.770770770770774" y="1600.0" type="line" identifier="JfSFAkWGZC"/>
      <point x="30.44144144144144" y="1600.0" type="line" smooth="yes" identifier="RTOJW56qXy"/>
      <point x="30.44144144144144" y="308.3023023023023" type="line" smooth="yes" identifier="7g7f8Wu7K4"/>
      <point x="74.996996996997" y="0.0" type="line" smooth="yes" identifier="R4lklfJsHA"/>
      <point x="131.9019019019019" y="0.0" type="line" smooth="yes" identifier="Pkl7cZ37MU"/>
      <point x="131.9019019019019" y="315.05505505505505" type="line"/>
      <point x="132.00700700700702" y="315.05505505505505" type="line"/>
      <point x="173.95695695695696" y="0.0" type="line" smooth="yes" identifier="rCeQLyjlsN"/>
      <point x="233.1091091091091" y="0.0" type="line" smooth="yes" identifier="ZqTZqAY3uY"/>
      <point x="233.1091091091091" y="1600.0" type="line" smooth="yes" identifier="5LJg4ajoG6"/>
    </contour>
  </outline>
</glyph>
<glyph name="X" format="2">
  <advance width="169.7197197197197"/>
  <unicode hex="0058"/>
  <outline>
    <contour>
      <point x="90.86486486486487" y="796.927927927928" type="line"/>
      <point x="136.92492492492494" y="750.927927927928" type="line"/>
      <point x="136.92492492492494" y="0.0" type="line"/>
      <point x="143.24924924924926" y="0.0" type="line"/>
      <point x="143.24924924924926" y="752.998998998999" type="line"/>
      <point x="96.69369369369369" y="799.0" type="line"/>
      <point x="96.69369369369369" y="801.0" type="line"/>
      <point x="139.24924924924926" y="844.001001001001" type="line"/>
      <point x="139.24924924924926" y="1600.0" type="line"/>
      <point x="133.91991991991992" y="1600.0" type="line"/>
      <point x="133.91991991991992" y="846.072072072072" type="line"/>
      <point x="90.86486486486487" y="803.072072072072" type="line"/>
      <point x="78.85485485485485" y="803.072072072072" type="line"/>
      <point x="35.7997997997998" y="846.072072072072" type="line"/>
      <point x="35.7997997997998" y="1600.0" type="line"/>
      <point x="30.47047047047047" y="1600.0" type="line"/>
      <point x="30.47047047047047" y="844.001001001001" type="line"/>
      <point x="73.02602602602603" y="801.0" type="line"/>
      <point x="73.02602602602603" y="799.0" type="line"/>
      <point x="26.47047047047047" y="752.998998998999" type="line"/>
      <point x="26.47047047047047" y="0.0" type="line"/>
      <point x="32.7947947947948" y="0.0" type="line"/>
      <point x="32.7947947947948" y="750.927927927928" type="line"/>
      <point x="78.85485485485485" y="796.927927927928" type="line"/>
    </contour>
  </outline>
</glyph>
<glyph name="Z" format="2">
  <advance width="128.66966966966967"/>
  <unicode hex="005A"/>
  <outline>
    <contour>
      <point x="12.45045045045045" y="0.0" type="line"/>
      <point x="116.22822822822822" y="0.0" type="line" identifier="pzdvPTirLJ"/>
      <point x="116.22822822822822" y="246.2242242242242" type="line" identifier="91SxUS0iwG"/>
      <point x="110.88988988988989" y="246.2242242242242" type="line"/>
      <point x="110.88988988988989" y="6.1441441441441444" type="line"/>
      <point x="18.774774774774777" y="6.1441441441441444" type="line"/>
      <point x="18.774774774774777" y="234.24324324324326" type="line"/>
      <point x="112.37637637637637" y="1576.018018018018" type="line" identifier="yyb1NCCI5w"/>
      <point x="112.37637637637637" y="1600.0" type="line" identifier="5FogYRSgkk"/>
      <point x="15.455455455455455" y="1600.0" type="line" identifier="svlFvrau4c"/>
      <point x="15.455455455455455" y="1356.4064064064064" type="line" identifier="LQ9fBsTy9K"/>
      <point x="21.32932932932933" y="1356.4064064064064" type="line"/>
      <point x="21.32932932932933" y="1593.855855855856" type="line"/>
      <point x="107.002002002002" y="1593.855855855856" type="line"/>
      <point x="107.002002002002" y="1575.855855855856" type="line"/>
      <point x="12.45045045045045" y="237.24324324324326" type="line" identifier="teVKnpBcVb"/>
    </contour>
  </outline>
</glyph>
<glyph name="S.alt" format="2">
  <advance width="130.16016016016016"/>
  <outline>
    <contour>
      <point x="17.02002002002002" y="0.0" type="line" identifier="09VlJ0BjUX"/>
      <point x="105.13013013013013" y="0.0" type="line" identifier="EagWihqFM8"/>
      <point x="105.13013013013013" y="802.8018018018018" type="line" identifier="KfNuQA7eZe"/>
      <point x="17.02002002002002" y="802.8018018018018" type="line" identifier="At364YZFEy"/>
      <point x="17.02002002002002" y="1293.1981981981983" type="line"/>
      <point x="56.73673673673674" y="1593.855855855856" type="line"/>
      <point x="103.13013013013013" y="1593.855855855856" type="line" identifier="3ZUkG35meB"/>
      <point x="103.13013013013013" y="1357.2972972972973" type="line" identifier="DTOJhFIl15"/>
      <point x="105.13013013013013" y="1357.2972972972973" type="line" identifier="9KDcrfQ5Ui"/>
      <point x="105.13013013013013" y="1600.0" type="line" identifier="SaF9ojRFrW"/>
      <point x="55.070070070070074" y="1600.0" type="line"/>
      <point x="15.02002002002002" y="1293.1981981981983" type="line"/>
      <point x="15.02002002002002" y="797.1981981981982" type="line" identifier="3sQ8t8BZ6b"/>
      <point x="103.13013013013013" y="797.1981981981982" type="line" identifier="yiV6OCBLHg"/>
      <point x="103.13013013013013" y="6.1441441441441444" type="line" identifier="9kdl9SYsn8"/>
      <point x="18.025025025025027" y="6.1441441441441444" type="line" identifier="yZDWuX8LLe"/>
      <point x="18.025025025025027" y="244.97297297297297" type="line" identifier="jYb9001DTm"/>
      <point x="17.02002002002002" y="244.97297297297297" type="line" identifier="ho4DrS0rdW"/>
    </contour>
  </outline>
</glyph>
